<?xml version="1.0" encoding="UTF-8"?>
<svg id="Lag_5" xmlns="http://www.w3.org/2000/svg" version="1.1" viewBox="0 0 1366 768">
  <!-- Generator: Adobe Illustrator 30.2.1, SVG Export Plug-In . SVG Version: 2.1.1 Build 1)  -->
  <defs>
    <style>
      .st0 {
        fill: #fff;
      }

      .st0, .st1 {
        stroke: #000;
        stroke-miterlimit: 10;
      }

      .st1 {
        fill: none;
        stroke-width: 10px;
      }
    </style>
  </defs>
  <g>
    <g>
      <path d="M484.45,450.38c-19.51,13.39-23.1,44.85-30.53,65.53-8.7,21.96-28.85,110.27-55.39,54.23-14.88-37.68-15.09-86.9-22.79-126.85,3.44.63-28.46-3.79-29.16,3.25-6.78,23.54-16.14,51.43-20.36,75.57-8.79,15.91-16.75,74.53-44.85,50.36-4.84-16.62-9.27-57.27-13.73-73.95-5.84-14.03-32.35-54.99-40.28-60.14-11.16.92-49.58-6.47-56.33,7.46-4.61,13.65-24.75,50.15-17.59,65.18,12.75,18.25,32.25,10.27,37.18-9.35-13.49-46.14,33.91-18.94,44.47,3.47,5.16,17.57,3.69,42.17,3.79,60.25,6.8,26.76,17.49,66.24,46.54,75.4,35.62-16.2,44.98-65.45,64.97-96.07,8.14-12.4,11.88,40.89,25.89,53.8,21.81,42.8,45.31,67.82,80.63,18.38,19.78-34.35,24.36-90.58,35.21-127.77,14.06-15.94,35.22.74,42.24,15.17-5.26,17.41,2.25,30.05,20.67,27.53,23.82-15.24-.63-48.72-9.6-65.32-1.56-.14-21.11-19.7-22.35-18.34-7.24.77-33.13-3.58-38.66,2.22Z"/>
      <path class="st1" d="M484.45,450.38c-19.51,13.39-23.1,44.85-30.53,65.53-8.7,21.96-28.85,110.27-55.39,54.23-14.88-37.68-15.09-86.9-22.79-126.85,3.44.63-28.46-3.79-29.16,3.25-6.78,23.54-16.14,51.43-20.36,75.57-8.79,15.91-16.75,74.53-44.85,50.36-4.84-16.62-9.27-57.27-13.73-73.95-5.84-14.03-32.35-54.99-40.28-60.14-11.16.92-49.58-6.47-56.33,7.46-4.61,13.65-24.75,50.15-17.59,65.18,12.75,18.25,32.25,10.27,37.18-9.35-13.49-46.14,33.91-18.94,44.47,3.47,5.16,17.57,3.69,42.17,3.79,60.25,6.8,26.76,17.49,66.24,46.54,75.4,35.62-16.2,44.98-65.45,64.97-96.07,8.14-12.4,11.88,40.89,25.89,53.8,21.81,42.8,45.31,67.82,80.63,18.38,19.78-34.35,24.36-90.58,35.21-127.77,14.06-15.94,35.22.74,42.24,15.17-5.26,17.41,2.25,30.05,20.67,27.53,23.82-15.24-.63-48.72-9.6-65.32-1.56-.14-21.11-19.7-22.35-18.34-7.24.77-33.13-3.58-38.66,2.22Z"/>
    </g>
    <g>
      <path d="M563.49,366.94l1-81.6,5-38.4,13.3-45.5-26,12-27,16-29,21-21,22-19,21-20,21-17,18-23,24-15,18-13,14-13.5,14-14.5-18-14-21-21-26-18-22-20-23-24-22-21-19-26-20-19-11,1.58,1.08-31.58-16.08,4.7,47.5,2,23.8,1,17.2,1,19,1,21v17.31l-4.04,32.74.04.96-7.73,50.87,33.83,1.12,19.46,3.35,11.17-8.28,13.17,6.38,123.93,4.1,7.69,11.5,17.45-10.67,115.43,3.82,14.87,12.13,17.19-11.36.34.29,37.53,1.24,1.7-82.5ZM174.46,409.41l10.11-25.61-7.96-19.39,5.93-19.11-3.85-19.66,1.04-19.49,13.54,10.01,13.49,10.98,11.99,11.48,9.69,8.25,17.42,14.53,14.42,12.18,9.54,9.43,11.03,11.8,14.89,16.88-121.29-2.28ZM319.81,412.48l-20.85-23.78-10-11-14-14-15.09-14.05-13.91-12.95.19.19-26.19-23.19-21.2-14.99-21.68-18.04-2.63-17.86-2.49-22.11,20,11,18,16,23.34,19.4,21.66,19.85,15,16.5,15,19.25,20,22.5,12,14.5,26.32,32.78h-23.47ZM542.49,338.69l-7.79,13.29,5.79,18.71-7.76,19.39,7.41,28.61-19.72-1.24-19.45-1.22-27.63-1.74-22.52-1.42-21.34-.6,24.65-19.4,12.51-11.1.48-.51,41.32-35.99.06-.09.13-.08-.19.16-.22.3,4.03-3.06,32.22-31.02-2,27ZM544.49,287.09l-10,8.6-12.71,7.52-20.29,18.48-11,8-15,15-13.91,12.95-15.09,14.05-14,14-10,11-14.68,15.78h-27.72l23.41-24.78,12-12,21-24,18-19,17-18,18.43-19,17.57-17.2,20-17.8,29-24-12,50.4Z"/>
      <path class="st1" d="M563.49,366.94l1-81.6,5-38.4,13.3-45.5-26,12-27,16-29,21-21,22-19,21-20,21-17,18-23,24-15,18-13,14-13.5,14-14.5-18-14-21-21-26-18-22-20-23-24-22-21-19-26-20-19-11,1.58,1.08-31.58-16.08,4.7,47.5,2,23.8,1,17.2,1,19,1,21v17.31l-4.04,32.74.04.96-7.73,50.87,33.83,1.12,19.46,3.35,11.17-8.28,13.17,6.38,123.93,4.1,7.69,11.5,17.45-10.67,115.43,3.82,14.87,12.13,17.19-11.36.34.29,37.53,1.24,1.7-82.5ZM174.46,409.41l10.11-25.61-7.96-19.39,5.93-19.11-3.85-19.66,1.04-19.49,13.54,10.01,13.49,10.98,11.99,11.48,9.69,8.25,17.42,14.53,14.42,12.18,9.54,9.43,11.03,11.8,14.89,16.88-121.29-2.28ZM319.81,412.48l-20.85-23.78-10-11-14-14-15.09-14.05-13.91-12.95.19.19-26.19-23.19-21.2-14.99-21.68-18.04-2.63-17.86-2.49-22.11,20,11,18,16,23.34,19.4,21.66,19.85,15,16.5,15,19.25,20,22.5,12,14.5,26.32,32.78h-23.47ZM542.49,338.69l-7.79,13.29,5.79,18.71-7.76,19.39,7.41,28.61-19.72-1.24-19.45-1.22-27.63-1.74-22.52-1.42-21.34-.6,24.65-19.4,12.51-11.1.48-.51,41.32-35.99.06-.09.13-.08-.19.16-.22.3,4.03-3.06,32.22-31.02-2,27ZM544.49,287.09l-10,8.6-12.71,7.52-20.29,18.48-11,8-15,15-13.91,12.95-15.09,14.05-14,14-10,11-14.68,15.78h-27.72l23.41-24.78,12-12,21-24,18-19,17-18,18.43-19,17.57-17.2,20-17.8,29-24-12,50.4Z"/>
    </g>
  </g>
  <path class="st0" d="M797,444"/>
</svg>