<?xml version="1.0" encoding="utf-8"?>
<!-- Generator: Adobe Illustrator 30.2.1, SVG Export Plug-In . SVG Version: 9.03 Build 0)  -->
<svg version="1.0" id="Lag_1" xmlns="http://www.w3.org/2000/svg" xmlns:xlink="http://www.w3.org/1999/xlink" x="0px" y="0px"
	 viewBox="0 0 512 512" style="enable-background:new 0 0 512 512;" xml:space="preserve">
<style type="text/css">
	.st0{fill:#733232;}
</style>
<g transform="translate(0.000000,512.000000) scale(0.100000,-0.100000)">
	<path class="st0" d="M1640,5105c-36-8-103-33-150-56c-69-34-102-59-170-128c-135-136-190-269-190-458c0-119,17-190,72-303
		c40-82,52-96,384-431l344-345v-147c0-108-3-149-13-159c-8-7-143-67-300-133l-287-120v-675v-674l115-382l115-382V356V0h1100h1100
		v353v354l115,383l115,383v596v596l-387,129c-214,71-452,151-530,178l-143,50v470v470l55,60c70,75,108,142,140,240
		c111,349-84,721-435,830c-60,18-98,23-190,23c-127,0-190-15-297-68l-62-31l-48,26C1969,5109,1776,5136,1640,5105z M1889,4801
		c67-21,132-65,205-140l50-51l77,75c104,102,165,130,279,130c72,0,94-4,146-28c77-36,145-104,181-182c23-50,27-73,27-140
		c-1-98-26-169-85-237l-41-48h-401h-402l3-172c2-94-1-175-6-180c-4-4-102,87-220,206c-244,247-264,276-270,408c-5,95,15,165,67,234
		C1591,4798,1742,4847,1889,4801z M2630,3343v-538l273-92c149-50,388-131,530-178l257-87v-467v-466l-94-310l-93-310l-841-3l-840-2
		l-16,47c-8,27-51,168-96,315l-80,266v554v554l145,61c80,33,148,57,151,52s5-181,4-391c-1-211-1-389-1-396c1-10,34-12,149-10l147,3
		l1,25c1,14,2,449,3,968l1,942h200h200V3343z M3460,445V300h-800h-800v145v145h800h800V445z"/>
</g>
</svg>
