<?xml version="1.0" encoding="utf-8"?>
<!-- Generator: Adobe Illustrator 30.2.1, SVG Export Plug-In . SVG Version: 9.03 Build 0)  -->
<svg version="1.0" id="Lag_1" xmlns="http://www.w3.org/2000/svg" xmlns:xlink="http://www.w3.org/1999/xlink" x="0px" y="0px"
	 viewBox="0 0 512 512" style="enable-background:new 0 0 512 512;" xml:space="preserve">
<style type="text/css">
	.st0{fill:#F2EADF;}
</style>
<g transform="translate(0.000000,512.000000) scale(0.100000,-0.100000)">
	<path class="st0" d="M2449,5042c-59-42-634-453-1278-912L0,3296v-533c0-293,1-533,3-533c1,0,90,63,197,139c107,77,197,138,200,136
		s4-499,2-1104l-2-1101H200H0V150V0h2560h2560v150v150h-200h-200l-2,1101c-2,605-1,1102,2,1104s75-46,160-107c85-60,174-123,197-139
		l43-30v533v534l-315,224l-315,225v572v573h-450h-450v-245c0-145-4-245-9-245s-237,162-515,360s-506,360-508,359
		C2556,5119,2507,5084,2449,5042z M3269,4247c388-277,888-633,1111-791c223-159,413-296,423-305c16-15,17-35,15-178l-3-160l-485,346
		c-267,190-774,552-1128,804l-642,457l-538-383c-295-211-802-573-1127-804l-590-421l-3,156c-1,86-1,161,2,167c2,7,323,239,712,516
		s895,638,1123,801c229,163,418,297,420,298C2561,4750,2880,4524,3269,4247z M4190,4279c0-258-2-310-14-306c-7,3-75,49-150,102
		l-136,97v209v209h150h150V4279z M2825,3864c143-102,560-400,928-662l667-476V1513V300H2560H700v1213v1213l441,314
		c243,173,661,471,928,662s488,347,491,347S2682,3966,2825,3864z"/>
	<path class="st0" d="M1270,1890V981l438-3l437-3l57-27c107-50,187-157,203-271l7-47h148h147l7,48c15,111,98,220,204,270l57,27
		l438,3l437,3v909v910h-412c-445-1-511-6-625-53c-72-29-139-74-205-135l-48-45l-49,46c-61,57-143,110-213,138c-107,43-179,48-615,49
		h-413V1890z M2145,2485c120-31,230-141,254-255c7-33,11-229,11-550v-499l-73,35c-119,56-177,64-489,64h-278v610v610h258
		C2027,2500,2099,2497,2145,2485z M3550,1890v-610h-277c-314,0-371-8-491-65l-73-34l3,527l3,527l28,57c32,65,101,138,155,164
		c78,38,122,43,390,43l262,1V1890z"/>
</g>
</svg>
