<?xml version="1.0" encoding="utf-8"?>
<!-- Generator: Adobe Illustrator 30.2.1, SVG Export Plug-In . SVG Version: 9.03 Build 0)  -->
<svg version="1.0" id="Lag_1" xmlns="http://www.w3.org/2000/svg" xmlns:xlink="http://www.w3.org/1999/xlink" x="0px" y="0px"
	 viewBox="0 0 512 512" style="enable-background:new 0 0 512 512;" xml:space="preserve">
<style type="text/css">
	.st0{fill:#F2EADF;}
</style>
<g transform="translate(0.000000,512.000000) scale(0.100000,-0.100000)">
	<path class="st0" d="M2230,4704c-388-227-1048-615-1467-861L0,3396v-932v-933l33-24C59,1487,2231,29,2266,7
		c10-6,2790,1716,2821,1746c8,9-5,36-53,112c-47,75-67,118-79,170c-52,225-14,468,101,652l54,85l-64,74c-86,98-101,143-100,299
		c0,97,6,142,28,230c30,118,98,299,122,326c13,14-90,83-1070,717c-597,386-1086,702-1088,701C2936,5119,2618,4932,2230,4704z
		 M3728,4230c592-383,778-508,769-516c-9-9-2189-1343-2239-1371c-6-3-1621,1016-1640,1035c-3,4,217,138,490,297
		c272,160,793,464,1156,677c364,214,666,387,672,385C2943,4736,3299,4508,3728,4230z M4635,3318c-23-133-16-312,15-413
		c11-38,22-76,23-83c1-8-148-108-353-236c-195-122-731-458-1190-745c-459-288-840-525-846-528c-9-3-1836,1192-1931,1263l-33,25v290
		c0,159,2,289,5,289c2,0,222-138,487-307c266-168,692-439,948-601s470-298,476-303c7-6,451,261,1210,725c659,403,1201,732,1203,730
		C4650,3423,4644,3375,4635,3318z M4614,2292c-7-106,6-228,36-352c11-41,18-75,17-76c-1,0-528-328-1172-729
		c-643-400-1179-734-1191-741c-19-13-42,0-290,167c-148,100-587,394-975,655c-389,260-709,481-713,489c-10,27-7,495,3,495
		c5,0,441-284,968-631s963-634,969-636c7-2,535,324,1175,726c640,401,1167,730,1172,730C4617,2390,4617,2346,4614,2292z"/>
</g>
</svg>
