<?xml version="1.0" standalone="no"?>
<!DOCTYPE svg PUBLIC "-//W3C//DTD SVG 20010904//EN"
 "http://www.w3.org/TR/2001/REC-SVG-20010904/DTD/svg10.dtd">
<svg version="1.0" xmlns="http://www.w3.org/2000/svg"
 width="512.000000pt" height="512.000000pt" viewBox="0 0 512.000000 512.000000"
 preserveAspectRatio="xMidYMid meet">
<g transform="translate(0.000000,512.000000) scale(0.100000,-0.100000)"
fill="#000000" stroke="none">
<path d="M2320 5109 c-501 -48 -994 -252 -1383 -572 -130 -107 -321 -305 -415
-430 -271 -360 -438 -767 -504 -1232 -17 -118 -17 -512 0 -630 66 -466 233
-872 506 -1234 92 -124 284 -322 413 -428 332 -273 749 -466 1170 -542 528
-95 1079 -20 1558 213 262 127 465 268 669 466 222 215 381 432 515 701 268
537 338 1122 205 1714 -74 330 -239 682 -455 972 -94 126 -366 398 -492 492
-394 294 -837 466 -1317 510 -130 12 -343 12 -470 0z m1858 -1284 c79 -35 152
-112 181 -190 28 -76 28 -184 0 -262 -20 -55 -65 -102 -988 -1027 -535 -536
-989 -983 -1017 -1001 -158 -103 -360 -110 -538 -18 -64 33 -115 82 -541 510
-535 538 -528 530 -533 672 -3 69 0 97 18 143 29 79 96 150 178 190 59 29 75
33 147 32 58 0 97 -7 140 -24 56 -21 86 -48 453 -414 l392 -391 878 877 c482
482 893 884 912 894 105 53 213 56 318 9z"/>
</g>
</svg>
