<?xml version="1.0" encoding="utf-8"?>
<!-- Generator: Adobe Illustrator 30.2.1, SVG Export Plug-In . SVG Version: 9.03 Build 0)  -->
<svg version="1.0" id="Lag_1" xmlns="http://www.w3.org/2000/svg" xmlns:xlink="http://www.w3.org/1999/xlink" x="0px" y="0px"
	 viewBox="0 0 512 512" style="enable-background:new 0 0 512 512;" xml:space="preserve">
<style type="text/css">
	.st0{fill:#F2EADF;}
</style>
<g transform="translate(0.000000,512.000000) scale(0.100000,-0.100000)">
	<path class="st0" d="M1105,5104c-38-9-108-34-155-56c-120-57-239-177-298-298c-78-160-73,19-70-2156l3-1949l23-85
		c72-262,233-445,463-526l84-29l1693-3l1692-2v2045v2045h-105h-105l-29,45c-92,145-91,371,1,593l31,72h63h64v160v160l-1642-1
		C1408,5118,1165,5116,1105,5104z M3980,4793c0-3-8-30-17-60l-17-53h-883h-883v-160v-160h865h865v-22c0-22,32-180,46-225l6-23H2614
		c-747,0-1377,4-1411,9c-120,18-221,92-271,199c-37,80-42,194-12,274c38,103,140,192,247,217C1211,4799,3980,4803,3980,4793z
		 M1072,3798l73-23l1538-3l1537-3V2045V320l-1507,2l-1508,3l-56,23c-106,42-175,124-221,258l-23,69l-3,1598l-2,1598l49-25
		C976,3832,1031,3810,1072,3798z"/>
	<path class="st0" d="M2280,3214c-202-37-360-109-497-226c-348-298-441-792-223-1195c154-286,429-468,758-504c186-20,377,18,549,111
		l72,38l209-211c116-117,222-227,237-245c15-17,32-32,39-32c6,0,61,50,121,110l110,110l-190,193c-105,105-212,215-238,243l-48,51
		l55,86c136,217,180,498,117,747c-29,112-117,288-189,375c-125,151-321,277-507,326C2577,3212,2345,3226,2280,3214z M2618,2867
		c254-89,424-312,439-577c10-191-52-355-186-490c-135-136-277-195-466-194c-91,1-124,6-192,28c-309,101-501,423-439,736
		c45,225,190,401,399,484c99,39,138,46,262,42C2521,2893,2561,2887,2618,2867z"/>
</g>
</svg>
