<?xml version="1.0" encoding="UTF-8"?>
<svg id="Layer_1" xmlns="http://www.w3.org/2000/svg" version="1.1" viewBox="0 0 512 512.01">
  <!-- Generator: Adobe Illustrator 30.2.1, SVG Export Plug-In . SVG Version: 2.1.1 Build 1)  -->
  <defs>
    <style>
      .st0 {
        fill: #733232;
      }
    </style>
  </defs>
  <path class="st0" d="M206.39,514.5c-10.48-8.17-20.48-16.35-30.52-24.49-3.73-3.03-7.57-5.92-11.34-8.91-4.73-3.74-7.02-8.52-7-14.68.1-32.99-.04-65.98.15-98.96.02-4.41-1.46-6.88-5.16-9.16-25.55-15.81-46.49-36.48-62.46-61.88-14.49-23.03-23.82-48.28-27.19-75.23-3.48-27.88-2.07-55.76,6.14-82.86,7.4-24.42,19.16-46.76,35.46-66.39,19.26-23.19,42.56-41.51,70.21-53.76,15.49-6.86,31.69-11.8,48.6-14,1.16-.15,2.34-.1,3.42-1.37,17.91-.29,35.59-.29,53.75-.29,2.45,2.79,5.73,1.87,8.31,2.34,32.2,5.9,61.07,19.07,86.4,39.69,20.96,17.06,37.79,37.68,50.17,61.75,8.39,16.31,14.42,33.61,17.62,51.59,2.76,15.47,4.31,31.28,3.2,47.05-2.77,39.35-15.46,75.21-39.43,106.73-14.4,18.93-31.92,34.61-52.25,46.95-3.51,2.13-4.27,4.36-4.26,7.96.08,31.81-.14,63.63.16,95.44.09,9.38-3.61,16.06-10.74,21.67-12.61,9.91-24.99,20.11-37.59,30.51-31.81.31-63.5.31-95.65.31M226.99,35.93c-10.2,1.48-20.05,4.3-29.59,8.1-18.65,7.43-35.88,17.35-50.77,30.88-16.29,14.8-28.95,32.32-38.48,52.24-12.45,26.02-17.04,53.51-14.61,81.92,1.92,22.45,8.7,43.72,19.97,63.55,15.72,27.66,37.74,48.66,65.5,63.75,6.94,3.77,10.23,9.13,10.24,16.79.02,9.5.17,18.99-.05,28.49-.1,4.07,1.19,5.58,5.4,5.56,39.65-.11,79.3-.11,118.95,0,4.04.01,5.17-1.52,5.09-5.31-.19-9.16.46-18.36-.2-27.48-.7-9.67,3.88-15.19,11.88-19.28,13.24-6.78,25-15.76,35.59-26.12,14.61-14.3,26.15-30.81,34.54-49.57,8.44-18.89,13.24-38.67,13.97-59.19.72-20.33-2.65-40.14-9.61-59.48-11.59-32.17-31.68-57.72-59.02-77.61-18.73-13.63-39.69-22.47-62.65-26.65-18.49-3.37-36.87-3.84-56.13-.59M189.26,446.98c0,1.83.23,3.7-.04,5.49-.7,4.77,1.07,8.14,4.88,11.04,7.38,5.63,14.53,11.55,21.71,17.44,2.97,2.44,6.14,3.33,10.04,3.29,18.65-.19,37.29-.18,55.94-.02,3.96.03,7.03-1.33,9.97-3.71,6.18-5.01,12.65-9.68,18.56-14.99,3.25-2.92,8.4-4.5,8.3-10.4-.17-10.65-.13-21.31,0-31.97.04-3.27-1.18-4.33-4.4-4.32-40.12.08-80.25.08-120.37,0-3.45,0-4.72,1.2-4.63,4.67.18,7.49.05,14.98.05,23.47h-.01Z"/>
  <path class="st0" d="M341.53,199.14c-6.95,5.97-13.32,12.02-19.35,18.44-2.23,2.38-3,4.52-2.33,7.99,3.38,17.55,6.45,35.15,9.37,52.78,2.02,12.19-9.51,21.92-21.31,17.65-11.11-4.02-21.01-10.69-31.58-15.92-7-3.46-13.78-7.35-20.6-11.16-2.08-1.17-3.5.1-5.06.9-16.4,8.49-32.65,17.27-49.21,25.43-11.9,5.87-23.72-2.49-22.98-14.14.28-4.33.79-8.59,1.52-12.83,2.42-14.03,4.99-28.04,7.51-42.06.66-3.66-.29-6.4-3.18-9.17-9.5-9.1-18.55-18.67-27.91-27.93-4.11-4.07-9.09-7.16-12.21-12.32-6.77-11.19-1.2-22.87,11.8-24.69,18.19-2.55,36.34-5.38,54.53-7.94,2.69-.38,3.61-2.13,4.47-4.11,7.26-16.64,15.96-32.58,24.04-48.82,2.79-5.61,7.49-9.14,14.32-9.13,7.08.01,12.06,3.06,15.13,9.36,7.13,14.67,15.41,28.81,21.38,44,2.64,6.72,6.89,8.91,13.5,9.73,16.25,2.01,32.43,4.54,48.62,7,5.91.9,10.58,3.67,12.68,9.74,2.33,6.75,1.14,12.77-3.81,17.86-6.27,6.45-12.71,12.73-19.33,19.33M272.98,241.94c5.9,2.95,11.8,5.91,18.04,9.03.2-1.11.5-1.75.4-2.32-1.51-8.81-3.07-17.6-4.6-26.4-1.46-8.43-.58-15.75,6.74-21.9,7.39-6.22,13.79-13.62,21.12-21.01-9.88-2.36-18.93-3.32-27.92-4.38-8.77-1.03-16.19-3.61-19.54-12.74-3.05-8.29-7.46-15.94-11.36-23.83-.55-1.11-.74-2.61-2.92-2.89-4.5,9.11-9.23,18.25-13.54,27.59-2.46,5.31-5.85,9.37-11.67,10.58-5.15,1.07-10.46,1.36-15.63,2.34-6.36,1.2-12.94,1.34-19.65,3.73,5.2,4.56,9.12,9.46,14.21,13.34,10.99,8.36,17.8,18.21,13.16,33.41-2.25,7.39-3.76,15.39-3.64,23.63,2.73.12,4.72-1.12,6.75-2.18,7.67-4,15.37-7.95,22.98-12.07,3.93-2.12,8-2.19,12.1-1.21,5.24,1.25,9.75,4.18,14.96,7.29h0Z"/>
</svg>